# xmcd
#
# Track frame offsets:
#	150
#	11953
#	22292
#	33720
#	45632
#	57928
#	68711
#	80084
#	90982
#	108001
#	119092
#	131280
#	144995
#	156457
#	168601
#	180782
#	193523
#	204511
#	218447
#	237029
#
# Disc length: 3317 seconds
#
# Revision: 1
# Processed by: cddbd v1.5.2PL0 Copyright (c) Steve Scherf et al.
# Submitted via: dBpowerAMP V4.0
#
DISCID=120cf314
DTITLE=Various Artist - Counry Spirit - CD1
DYEAR=2010
DGENRE=Country
TTITLE0=Billie Jo Spears - Look What They've Done To My Song Ma
TTITLE1=Cowboy Copas - Alabam
TTITLE2=Kenny Rogers - Me And Bobby Mc Gee
TTITLE3=Waylon Jennings - Don't Think Twice It's Alright
TTITLE4=Johnny Cash - I Walk The Line
TTITLE5=Dolly Parton - It Wasn't God Who Made Honky Tonk Angels
TTITLE6=Patsy Cline - Walkin' After Midnight
TTITLE7=Bill Carlisle - No Help Wanted
TTITLE8=Smoky Dawson - Outlaws Of The Wedding Range
TTITLE9=Merle Kilgore - Love Has Made You Beautiful
TTITLE10=Porter Wagoner - Green Green Grass Of Home
TTITLE11=Johnny Paycheck - Someone To Give My Love To
TTITLE12=Don Gibson - I Can't Stop Loving You
TTITLE13=Hank Williams - Your Cheatin' Heart
TTITLE14=Lynn Anderson - Stand By Your Man 
TTITLE15=Hank Snow - I'm Movin' On 
TTITLE16=Merle Haggard - My Friends Are Gonna Be Strangers
TTITLE17=Tex Ritter - Fool's Paradise
TTITLE18=Alabama - I Wanna Be With You Tonight
TTITLE19=Tennessee Ernie Ford - Sixteen Tons
EXTD=
EXTT0=
EXTT1=
EXTT2=
EXTT3=
EXTT4=
EXTT5=
EXTT6=
EXTT7=
EXTT8=
EXTT9=
EXTT10=
EXTT11=
EXTT12=
EXTT13=
EXTT14=
EXTT15=
EXTT16=
EXTT17=
EXTT18=
EXTT19=
PLAYORDER=
